<svg width="573" height="511" viewBox="0 0 573 511" fill="none" xmlns="http://www.w3.org/2000/svg">
<g opacity="0.2">
<path d="M471.109 165.235C465.011 163.142 458.861 161.204 452.666 159.422C453.707 155.169 454.665 150.968 455.515 146.841C469.477 79.065 460.35 24.4634 429.173 6.48599C399.282 -10.7484 350.397 7.22237 301.026 50.1896C296.16 54.4318 291.402 58.7963 286.757 63.2788C283.648 60.2981 280.483 57.3752 277.265 54.5117C225.522 8.56979 173.657 -10.7931 142.515 7.2358C112.65 24.5239 103.807 75.8532 116.377 140.086C117.627 146.447 119.039 152.776 120.611 159.066C113.27 161.152 106.186 163.372 99.4064 165.736C38.7415 186.887 0 220.033 0 254.415C0 289.924 41.5908 325.541 104.776 347.138C109.898 348.881 115.064 350.497 120.267 351.983C118.577 358.758 117.077 365.578 115.768 372.436C103.784 435.554 113.142 485.671 142.927 502.849C173.689 520.589 225.32 502.357 275.593 458.409C279.67 454.836 283.656 451.162 287.55 447.39C292.58 452.244 297.745 456.956 303.038 461.522C351.737 503.426 399.833 520.347 429.588 503.122C460.321 485.33 470.31 431.492 457.342 365.99C456.32 360.859 455.174 355.752 453.906 350.676C457.532 349.602 461.091 348.496 464.56 347.346C530.247 325.583 572.986 290.398 572.986 254.415C572.986 219.908 532.994 186.538 471.109 165.235ZM456.863 324.113C453.729 325.149 450.515 326.15 447.238 327.123C439.986 304.166 430.201 279.756 418.224 254.533C429.652 229.913 439.062 205.814 446.11 183.006C451.972 184.703 457.659 186.491 463.143 188.378C516.167 206.633 548.509 233.619 548.509 254.415C548.509 276.564 513.579 305.319 456.863 324.113ZM433.33 370.744C439.064 399.707 439.881 425.894 436.083 446.367C432.672 464.763 425.809 477.026 417.322 481.939C399.266 492.392 360.65 478.806 319.003 442.967C314.08 438.722 309.276 434.341 304.596 429.829C320.743 412.172 336.878 391.645 352.626 368.846C380.326 366.389 406.496 362.369 430.228 356.883C431.396 361.599 432.435 366.223 433.33 370.744ZM195.344 480.133C177.702 486.362 163.65 486.541 155.156 481.644C137.083 471.22 129.569 430.979 139.818 377.002C141.036 370.624 142.431 364.281 144.001 357.98C167.471 363.172 193.45 366.906 221.215 369.157C237.071 391.466 253.672 411.97 270.403 429.925C266.847 433.366 263.207 436.718 259.487 439.979C237.254 459.412 214.977 473.199 195.344 480.133ZM112.695 323.976C84.755 314.426 61.6811 302.015 45.8658 288.471C31.653 276.302 24.4795 264.218 24.4795 254.415C24.4795 233.55 55.5841 206.937 107.464 188.85C113.76 186.657 120.35 184.586 127.187 182.643C134.359 205.966 143.764 230.351 155.114 255.01C143.616 280.033 134.077 304.808 126.836 328.406C122.087 327.045 117.371 325.569 112.695 323.976ZM140.4 135.383C129.631 80.352 136.783 38.8396 154.78 28.4206C173.948 17.3235 216.336 33.1455 261.013 72.8159C263.927 75.4086 266.793 78.0539 269.61 80.7504C252.962 98.6271 236.514 118.979 220.799 141.156C193.851 143.654 168.055 147.664 144.339 153.038C142.878 147.188 141.564 141.302 140.4 135.386V135.383ZM387.56 196.415C381.959 186.739 376.149 177.185 370.136 167.759C388.418 170.071 405.934 173.14 422.383 176.891C417.445 192.72 411.29 209.267 404.045 226.233C398.749 216.185 393.253 206.244 387.56 196.415ZM286.768 98.2444C298.058 110.476 309.366 124.132 320.487 138.949C297.926 137.883 275.327 137.879 252.765 138.935C263.898 124.255 275.302 110.617 286.768 98.2444ZM185.33 196.583C179.708 206.333 174.315 216.212 169.154 226.213C162.028 209.308 155.928 192.684 150.948 176.632C167.296 172.974 184.73 169.984 202.895 167.715C196.815 177.198 190.958 186.823 185.33 196.581V196.583ZM203.417 342.856C184.649 340.761 166.954 337.925 150.61 334.366C155.669 318.027 161.902 301.05 169.183 283.782C174.364 293.791 179.78 303.676 185.426 313.43C191.232 323.457 197.244 333.279 203.417 342.856ZM287.444 412.308C275.841 399.792 264.27 385.944 252.969 371.051C263.941 371.481 275.125 371.7 286.493 371.7C298.172 371.7 309.717 371.438 321.081 370.932C309.923 386.094 298.658 399.962 287.444 412.308ZM404.275 282.9C411.935 300.359 418.39 317.246 423.515 333.305C406.903 337.097 388.966 340.15 370.066 342.417C376.123 332.816 381.987 323.096 387.657 313.262C393.421 303.266 398.962 293.143 404.275 282.9ZM366.454 301.032C357.774 316.11 348.607 330.901 338.966 345.383C321.503 346.62 304 347.234 286.493 347.225C268.661 347.225 251.317 346.67 234.616 345.586C224.723 331.138 215.381 316.321 206.609 301.167H206.611C197.88 286.092 189.725 270.692 182.163 254.999C189.705 239.302 197.836 223.894 206.537 208.808L206.535 208.811C215.232 193.721 224.5 178.967 234.318 164.581C251.357 163.292 268.831 162.62 286.491 162.62H286.493C304.233 162.62 321.73 163.298 338.765 164.597C348.483 178.961 357.692 193.664 366.373 208.679C375.103 223.731 383.341 239.064 391.074 254.652C383.421 270.399 375.209 285.869 366.454 301.032ZM416.948 27.691C436.134 38.7568 443.597 83.3803 431.542 141.899C430.772 145.632 429.908 149.435 428.968 153.291C405.193 147.803 379.38 143.723 352.353 141.187C336.609 118.767 320.295 98.3832 303.918 80.737C308.21 76.5996 312.604 72.5696 317.096 68.6505C359.399 31.8384 398.935 17.3034 416.948 27.691ZM286.493 203.249C314.751 203.249 337.659 226.157 337.659 254.415C337.659 282.672 314.751 305.58 286.493 305.58C258.236 305.58 235.327 282.672 235.327 254.415C235.327 226.157 258.236 203.249 286.493 203.249Z" fill="#00D8FF"/>
</g>
<defs>
</defs>
</svg>
